<svg id="visual" viewBox="0 0 900 200" width="900" height="200" xmlns="http://www.w3.org/2000/svg" xmlns:xlink="http://www.w3.org/1999/xlink" version="1.1"><path d="M0 136L13.7 135.2C27.3 134.3 54.7 132.7 82 131.2C109.3 129.7 136.7 128.3 163.8 130.7C191 133 218 139 245.2 138.2C272.3 137.3 299.7 129.7 327 126.2C354.3 122.7 381.7 123.3 409 126.7C436.3 130 463.7 136 491 141.2C518.3 146.3 545.7 150.7 573 148.8C600.3 147 627.7 139 654.8 138.8C682 138.7 709 146.3 736.2 149.2C763.3 152 790.7 150 818 145.7C845.3 141.3 872.7 134.7 886.3 131.3L900 128L900 201L886.3 201C872.7 201 845.3 201 818 201C790.7 201 763.3 201 736.2 201C709 201 682 201 654.8 201C627.7 201 600.3 201 573 201C545.7 201 518.3 201 491 201C463.7 201 436.3 201 409 201C381.7 201 354.3 201 327 201C299.7 201 272.3 201 245.2 201C218 201 191 201 163.8 201C136.7 201 109.3 201 82 201C54.7 201 27.3 201 13.7 201L0 201Z" fill="#4b8456"></path><path d="M0 173L13.7 173.8C27.3 174.7 54.7 176.3 82 177.7C109.3 179 136.7 180 163.8 179.2C191 178.3 218 175.7 245.2 175C272.3 174.3 299.7 175.7 327 174.7C354.3 173.7 381.7 170.3 409 169.3C436.3 168.3 463.7 169.7 491 168.3C518.3 167 545.7 163 573 164.2C600.3 165.3 627.7 171.7 654.8 170.2C682 168.7 709 159.3 736.2 155C763.3 150.7 790.7 151.3 818 151.7C845.3 152 872.7 152 886.3 152L900 152L900 201L886.3 201C872.7 201 845.3 201 818 201C790.7 201 763.3 201 736.2 201C709 201 682 201 654.8 201C627.7 201 600.3 201 573 201C545.7 201 518.3 201 491 201C463.7 201 436.3 201 409 201C381.7 201 354.3 201 327 201C299.7 201 272.3 201 245.2 201C218 201 191 201 163.8 201C136.7 201 109.3 201 82 201C54.7 201 27.3 201 13.7 201L0 201Z" fill="#2f6a40"></path></svg>